<svg xmlns="http://www.w3.org/2000/svg" viewBox="0 0 64 64">
  <rect width="64" height="64" rx="16" fill="#fbf7f5" />
  <rect
    x="5"
    y="5"
    width="54"
    height="54"
    rx="13"
    fill="none"
    stroke="#b45f78"
    stroke-width="2"
  />
  <path
    d="M18 43V19h9.5c5.5 0 8.8 2.7 8.8 7 0 2.8-1.5 4.8-4 5.7 3.2.8 5.1 2.9 5.1 6 0 4.4-3.5 7.3-9.2 7.3H18Zm6-14h3.4c1.9 0 3-1 3-2.6 0-1.7-1.1-2.6-3.1-2.6H24V29Zm0 10.2h3.9c2.2 0 3.4-1 3.4-2.9s-1.3-2.9-3.6-2.9H24v5.8Z"
    fill="#7f3f56"
  />
  <path
    d="M43.5 19v24"
    stroke="#c98fa0"
    stroke-width="5"
    stroke-linecap="round"
  />
  <path
    d="M47 19v24"
    stroke="#5f5168"
    stroke-width="2"
    stroke-linecap="round"
  />
</svg>
